<svg width="1175" height="236" viewBox="0 0 1175 236" fill="none" xmlns="http://www.w3.org/2000/svg">
<path fill-rule="evenodd" clip-rule="evenodd" d="M402.309 0.923398C353.543 5.2734 326.011 20.8324 317.539 48.8304C315.008 57.1924 314.419 73.6874 316.298 83.5664C318.68 96.0874 322.88 103.953 332.017 113.005C338.227 119.157 341.621 121.579 349.122 125.208C370.18 135.398 396.163 139.786 435.875 139.861C456.483 139.9 481.69 141.344 488.98 142.903C501.66 145.614 508.016 151.214 508.773 160.342C510.31 178.882 491.963 186.825 450.626 185.516C431.273 184.903 423.74 183.659 411.785 179.105C406.444 177.07 403.047 174.93 399.042 171.08L393.581 165.83H312.98V168.62C312.98 173.408 315.861 183.025 319.573 190.626C330.53 213.069 355.653 226.913 397.48 233.557C406.649 235.014 415.387 235.307 449.98 235.317C479.229 235.326 494.284 234.936 500.98 233.996C547.925 227.402 572.667 212.661 582.566 185.389C587.475 171.865 587.695 145.957 583.016 132.41C574.907 108.936 553.013 95.8454 512.577 90.2944C506.177 89.4154 486.03 88.3354 464.98 87.7424C423.411 86.5704 410.16 85.1694 401.98 81.0804C390.625 75.4034 388.636 65.0974 397.449 57.6034C400.627 54.9014 409.277 51.9564 419.3 50.1654C432.164 47.8664 468.582 47.8044 478.606 50.0644C486.54 51.8534 494.49 55.5184 497.385 58.7224C499.264 60.8014 499.852 60.8304 540.635 60.8304C577.929 60.8304 581.98 60.6734 581.98 59.2244C581.98 58.3414 581.267 54.8544 580.396 51.4744C572.796 21.9984 543.527 5.42736 490.98 0.849363C477.553 -0.320637 415.674 -0.268602 402.309 0.923398ZM257.128 6.6264L240.775 10.1804L241.331 13.6074C242.289 19.5124 247.545 29.3384 252.072 33.6884C257.138 38.5564 262.694 41.4634 269.282 42.6944L273.98 43.5724V23.2014C273.98 11.9974 273.868 2.88535 273.73 2.95135C273.592 3.01835 266.121 4.6724 257.128 6.6264ZM0.000628553 59.0804C0.0226286 119.642 0.832627 138.569 4.03063 153.331C13.3966 196.561 41.3246 222.339 88.9796 231.741C103.997 234.704 117.591 235.83 138.342 235.83C188.926 235.83 222.269 225.006 245.041 201.192C253.349 192.504 257.089 186.998 262.487 175.508C270.064 159.379 273.963 140.516 273.974 119.936L273.98 108.543L245.23 109.208C229.418 109.573 213.057 110.141 208.873 110.468L201.265 111.063L200.614 120.697C198.942 145.402 190.749 159.912 173.744 168.282C163.474 173.337 154.212 175.079 137.48 175.101C110.125 175.138 92.8786 168.025 82.9026 152.59C74.0536 138.898 72.9796 129.562 72.9796 66.2914C72.9796 22.0824 72.8646 18.9314 71.2296 18.4484C68.2516 17.5694 2.38162 3.83038 1.14562 3.83038C0.271618 3.83038 -0.0153714 17.6654 0.000628553 59.0804ZM612.98 58.8304L618.73 58.9094C621.892 58.9534 644.505 60.1904 668.98 61.6594L713.48 64.3304L713.992 227.396L750.318 235.58L786.48 227.152L786.992 64.2054L833.736 61.4764C859.445 59.9754 881.943 58.5204 883.73 58.2434L886.98 57.7394V6.83038H612.98V58.8304ZM969.065 11.0704C967.431 14.8284 931.198 94.8034 883.195 200.606L867.19 235.881L870.335 235.338C872.065 235.04 889.173 233.022 908.354 230.855C927.534 228.689 943.509 226.636 943.854 226.295C944.198 225.953 947.423 219.071 951.021 211.002L957.561 196.33H1079.29L1086.01 211.33C1091.36 223.282 1093.21 226.477 1095.1 227.051C1098.39 228.05 1174.09 236.054 1174.68 235.466C1174.94 235.204 1151.1 183.767 1121.7 121.16L1068.25 7.33038L970.917 6.8114L969.065 11.0704ZM211.48 16.2654L201.48 18.4384L200.952 84.0904L209.716 83.4824C214.536 83.1484 230.982 82.5774 246.261 82.2134L274.043 81.5524L273.48 59.3304L269.48 59.0394C250.383 57.6514 232.429 41.3904 226.465 20.0804C224.463 12.9234 225.568 13.2044 211.48 16.2654ZM1015.86 64.3484C1014.64 67.0884 1006.11 86.4304 996.915 107.33L980.189 145.33L999.651 145.601C1010.35 145.751 1027.55 145.751 1037.85 145.601L1056.59 145.33L1018.07 59.3674L1015.86 64.3484Z" fill="url(#paint0_linear_1023_7)"/>
<defs>
<linearGradient id="paint0_linear_1023_7" x1="0" y1="117.941" x2="1174.68" y2="117.941" gradientUnits="userSpaceOnUse">
<stop stop-color="#C19F55"/>
<stop offset="0.509615" stop-color="#F7E078"/>
<stop offset="1" stop-color="#A8822F"/>
</linearGradient>
</defs>
</svg>
